<svg width="600" height="400" viewBox="0 0 600 400" xmlns="http://www.w3.org/2000/svg">
  <rect width="600" height="400" fill="#0B1220"/>
  <rect x="0" y="0" width="600" height="36" fill="#0F1825"/>
  <circle cx="20" cy="18" r="6" fill="#F87171"/>
  <circle cx="40" cy="18" r="6" fill="#FBBF24"/>
  <circle cx="60" cy="18" r="6" fill="#34D399"/>
  <line x1="0" y1="36" x2="600" y2="36" stroke="#1E293B" stroke-width="1"/>
  <rect x="80" y="80" width="180" height="240" rx="10" fill="#131D2E" stroke="#1E293B"/>
  <rect x="100" y="110" width="140" height="90" rx="6" fill="#0B1220" stroke="#5EEAD4" stroke-width="1" opacity="0.5"/>
  <circle cx="170" cy="155" r="20" fill="#5EEAD4" opacity="0.3"/>
  <rect x="100" y="220" width="60" height="6" rx="3" fill="#5EEAD4" opacity="0.5"/>
  <rect x="100" y="240" width="100" height="6" rx="3" fill="#5B6478"/>
  <rect x="100" y="260" width="80" height="6" rx="3" fill="#5B6478"/>
  <path d="M280 200 L340 200 L340 140 L400 140" stroke="#A78BFA" stroke-width="2" fill="none" stroke-dasharray="6 4"/>
  <polygon points="400,140 410,135 410,145" fill="#A78BFA"/>
  <rect x="420" y="100" width="120" height="200" rx="10" fill="#131D2E" stroke="#A78BFA" stroke-width="1" opacity="0.6"/>
  <text x="480" y="140" font-family="monospace" font-size="11" fill="#A78BFA" text-anchor="middle">AI</text>
  <text x="480" y="160" font-family="monospace" font-size="11" fill="#8B95A8" text-anchor="middle">Vision</text>
  <rect x="440" y="180" width="80" height="6" rx="3" fill="#5B6478"/>
  <rect x="440" y="200" width="60" height="6" rx="3" fill="#5B6478"/>
  <rect x="440" y="220" width="70" height="6" rx="3" fill="#5B6478"/>
  <text x="300" y="370" font-family="sans-serif" font-size="20" font-weight="700" fill="#E8EDF5" text-anchor="middle">MEP Management System</text>
</svg>
