<svg width="600" height="400" viewBox="0 0 600 400" xmlns="http://www.w3.org/2000/svg">
  <rect width="600" height="400" fill="#0B1220"/>
  <rect x="0" y="0" width="600" height="36" fill="#0F1825"/>
  <circle cx="20" cy="18" r="6" fill="#F87171"/>
  <circle cx="40" cy="18" r="6" fill="#FBBF24"/>
  <circle cx="60" cy="18" r="6" fill="#34D399"/>
  <line x1="0" y1="36" x2="600" y2="36" stroke="#1E293B" stroke-width="1"/>
  <rect x="40" y="60" width="520" height="280" rx="12" fill="#131D2E" stroke="#1E293B" stroke-width="1"/>
  <rect x="40" y="60" width="120" height="280" fill="#0F1825"/>
  <rect x="60" y="90" width="80" height="8" rx="4" fill="#5EEAD4" opacity="0.7"/>
  <rect x="60" y="115" width="60" height="6" rx="3" fill="#5B6478"/>
  <rect x="60" y="135" width="70" height="6" rx="3" fill="#5B6478"/>
  <rect x="60" y="155" width="55" height="6" rx="3" fill="#5B6478"/>
  <rect x="180" y="85" width="160" height="100" rx="8" fill="#5EEAD4" opacity="0.1" stroke="#5EEAD4" stroke-width="1" opacity="0.3"/>
  <rect x="360" y="85" width="160" height="100" rx="8" fill="#A78BFA" opacity="0.1" stroke="#A78BFA" stroke-width="1" opacity="0.3"/>
  <rect x="180" y="205" width="340" height="110" rx="8" fill="#0B1220" stroke="#1E293B" stroke-width="1"/>
  <rect x="200" y="230" width="120" height="6" rx="3" fill="#5EEAD4" opacity="0.5"/>
  <rect x="200" y="250" width="200" height="6" rx="3" fill="#5B6478"/>
  <rect x="200" y="270" width="160" height="6" rx="3" fill="#5B6478"/>
  <text x="300" y="370" font-family="sans-serif" font-size="22" font-weight="700" fill="#E8EDF5" text-anchor="middle">Real Estate CRM</text>
</svg>
